<svg xmlns="http://www.w3.org/2000/svg" width="23.152" height="32" viewBox="0 0 23.152 32">
  <g id="dollars-money-bag" transform="translate(-4.424)">
    <g id="money_3">
      <g id="Group_2870" data-name="Group 2870">
        <path id="Path_10464" data-name="Path 10464" d="M22.271,11.527a1.481,1.481,0,0,0-.623-2.618,15.48,15.48,0,0,0,1.215-3.2c.354-1.418.582-3.377-.342-4.656A2.311,2.311,0,0,0,20.6,0c-1.228,0-2.312.975-3.271,1.834a9.651,9.651,0,0,1-1.052.865c-.243-.135-.579-.355-.9-.57a7.933,7.933,0,0,0-4.01-1.7,2.911,2.911,0,0,0-1.516.41A2.287,2.287,0,0,0,8.833,2.85,13.708,13.708,0,0,0,10.62,8.93a1.479,1.479,0,0,0-.551,2.586C7.6,14.346,4.424,19.848,4.424,22.752,4.424,28.283,9.077,32,16,32s11.576-3.718,11.576-9.249C27.577,19.83,24.629,14.392,22.271,11.527ZM11.088,2.714a.738.738,0,0,1,.273-.047A6.738,6.738,0,0,1,14.14,3.993a9.3,9.3,0,0,0,1.5.875,1.638,1.638,0,0,0,.607.115h0c.908,0,1.68-.689,2.566-1.486.492-.441,1.408-1.264,1.766-1.268a.431.431,0,0,1,.123.133c.875,1.211-.752,5.594-1.666,6.51a16.523,16.523,0,0,1-2.664.2A17.593,17.593,0,0,1,13.1,8.708C12.215,7.714,10.752,3.714,11.088,2.714ZM16,29.766c-4.311,0-9.342-1.836-9.342-7.015,0-2.33,3.453-8.26,5.686-10.4.371.07.75.129,1.129.178.246.037.494.066.74.088l.086.01c.184.016.363.027.541.039a21.374,21.374,0,0,0,5.218-.283c2.188,2.307,5.284,7.975,5.284,10.373C25.342,27.93,20.312,29.766,16,29.766Z" fill="#01953e"/>
        <path id="Path_10465" data-name="Path 10465" d="M18.974,22.189a3.028,3.028,0,0,0-.884-.723,4.525,4.525,0,0,0-1.559-.477q-1.573-.237-1.574-.969a.636.636,0,0,1,.254-.482,1.065,1.065,0,0,1,.725-.227,2.545,2.545,0,0,1,.568.057,1.851,1.851,0,0,1,.445.164,1.706,1.706,0,0,1,.383.271,5.142,5.142,0,0,1,.371.377h1.586V17.82H17.713v.338a2.654,2.654,0,0,0-.629-.271v-.854H15.508v.742a2.737,2.737,0,0,0-.848.264,2.514,2.514,0,0,0-.676.5,2.14,2.14,0,0,0-.6,1.491,2.794,2.794,0,0,0,.1.668,1.824,1.824,0,0,0,.4.736,3.012,3.012,0,0,0,.883.664,4.874,4.874,0,0,0,1.529.451,5.453,5.453,0,0,1,.547.117,2.367,2.367,0,0,1,.506.2,1.277,1.277,0,0,1,.377.3.615.615,0,0,1,.146.412.523.523,0,0,1-.281.455,1.337,1.337,0,0,1-.709.174,3.015,3.015,0,0,1-.578-.051,1.8,1.8,0,0,1-.463-.156,2.248,2.248,0,0,1-.4-.271,3.486,3.486,0,0,1-.4-.387H13.462v2.361h1.576v-.352c.074.039.15.074.23.107s.158.068.24.1v.922h1.576V25.77a2.877,2.877,0,0,0,.938-.213,2.489,2.489,0,0,0,.748-.473,2.164,2.164,0,0,0,.494-.68,1.959,1.959,0,0,0,.18-.838,2.805,2.805,0,0,0-.084-.613A1.944,1.944,0,0,0,18.974,22.189Z" fill="#01953e"/>
      </g>
    </g>
  </g>
</svg>
