<svg xmlns="http://www.w3.org/2000/svg" width="31.735" height="22.2" viewBox="0 0 31.735 22.2">
  <g id="dollar_1_" data-name="dollar (1)" transform="translate(0 -75.4)">
    <g id="Group_2867" data-name="Group 2867" transform="translate(0 75.4)">
      <g id="Group_2866" data-name="Group 2866">
        <path id="Path_10462" data-name="Path 10462" d="M31.729,87.711c-.038-.879-.9-1.581-2.561-2.087a18.244,18.244,0,0,0-4.7-.658V78.22a.684.684,0,0,0-.095-.316c-.177-.765-1.031-1.385-2.542-1.84A18.825,18.825,0,0,0,16.6,75.4a18.353,18.353,0,0,0-5.185.664c-1.144.354-2.517,1.012-2.517,2.144a1.164,1.164,0,0,0,.019.209l.07,2.883a7.566,7.566,0,1,0,3.351,13.3,18.7,18.7,0,0,0,4.047.443C16.705,96.8,20.5,97.6,24.034,97.6a18.1,18.1,0,0,0,5.185-.677c1.144-.354,2.517-1.018,2.517-2.15V87.831A.765.765,0,0,0,31.729,87.711Zm-8.58-5.994c0,.082-.3.518-1.676.936a17.9,17.9,0,0,1-4.869.613,18.09,18.09,0,0,1-4.306-.474c-.019-.006-.032-.006-.051-.013a7.3,7.3,0,0,0-1.979-1.119l-.044-1.783a7.005,7.005,0,0,0,1.366.525,18.689,18.689,0,0,0,5.014.613,18.858,18.858,0,0,0,5.235-.664,7.583,7.583,0,0,0,1.372-.55v1.657A.363.363,0,0,0,23.149,81.717ZM11.792,77.284a17.08,17.08,0,0,1,4.805-.613,17.653,17.653,0,0,1,4.869.613c1.372.417,1.676.847,1.676.929s-.31.525-1.682.936a17.867,17.867,0,0,1-4.862.607,17.361,17.361,0,0,1-4.66-.569c-1.359-.392-1.739-.822-1.77-.961,0-.013-.006-.013-.006-.013C10.167,78.094,10.458,77.689,11.792,77.284ZM11.811,93.4A6.3,6.3,0,1,1,7.569,82.438a6.44,6.44,0,0,1,1.865.278,6.328,6.328,0,0,1,4.312,4.749,6.613,6.613,0,0,1,.126,1.271A6.265,6.265,0,0,1,11.811,93.4Zm1.606.139a7.635,7.635,0,0,0,1.214-2.08c.537.044,1.094.076,1.676.082v.114l.038,2.143A19.751,19.751,0,0,1,13.417,93.534Zm1.688-5.552c.367.025.752.038,1.144.044l.038,2.238c-.443-.006-.879-.025-1.3-.057a7.773,7.773,0,0,0,.145-1.48C15.137,88.482,15.125,88.236,15.106,87.983Zm1.555-1.214H16.6c-.607,0-1.2-.025-1.739-.063a7.5,7.5,0,0,0-1.132-2.352,22.773,22.773,0,0,0,2.864.183,18.872,18.872,0,0,0,5.242-.664,7.984,7.984,0,0,0,1.366-.544v1.657C20.487,85.062,17.7,85.631,16.661,86.769Zm.835,1.005a.048.048,0,0,1,.006-.025c.057-.171.506-.588,1.815-.955a17.208,17.208,0,0,1,4.508-.537h.107a17.721,17.721,0,0,1,4.869.6c1.347.4,1.663.822,1.669.917v.006c-.006.095-.322.531-1.726.948a17.564,17.564,0,0,1-4.805.594,17.638,17.638,0,0,1-4.66-.563c-1.359-.392-1.733-.828-1.77-.961Zm11.356,7.948a16.881,16.881,0,0,1-4.812.62,17.206,17.206,0,0,1-4.8-.6c-1.334-.411-1.612-.835-1.612-.929V94.8L17.6,92.965a8.239,8.239,0,0,0,1.574.575,19.459,19.459,0,0,0,4.749.544,18.7,18.7,0,0,0,5.223-.664,8.1,8.1,0,0,0,1.328-.537v1.9h.006C30.477,94.869,30.186,95.3,28.852,95.722Zm1.631-4.654h-.006c0,.063-.038.139-.038.209,0,.089-.3.518-1.663.936a17.494,17.494,0,0,1-4.85.607c-3.5,0-5.861-.79-6.355-1.4l-.006-.531-.025-1.454a7.758,7.758,0,0,0,1.378.531,18.689,18.689,0,0,0,5.014.613A18.926,18.926,0,0,0,29.1,89.93a7.241,7.241,0,0,0,1.385-.544Z" transform="translate(0 -75.4)" fill="#01953e"/>
      </g>
    </g>
    <g id="Group_2869" data-name="Group 2869" transform="translate(5.185 83.55)">
      <g id="Group_2868" data-name="Group 2868">
        <path id="Path_10463" data-name="Path 10463" d="M86.685,210.376a2.39,2.39,0,0,0-2.3-1.739,1.122,1.122,0,1,1,1.125-1.119.632.632,0,0,0,1.265,0,2.39,2.39,0,0,0-1.739-2.3v-.285a.632.632,0,0,0-1.265,0v.272a2.386,2.386,0,0,0,.613,4.692,1.122,1.122,0,1,1-1.119,1.126.632.632,0,1,0-1.265,0,2.4,2.4,0,0,0,1.77,2.308v.55a.632.632,0,0,0,1.265,0v-.556A2.385,2.385,0,0,0,86.685,210.376Z" transform="translate(-82 -204.3)" fill="#01953e"/>
      </g>
    </g>
  </g>
</svg>
