<svg xmlns="http://www.w3.org/2000/svg" width="30" height="30" viewBox="0 0 30 30">
  <path id="Path_128" data-name="Path 128" d="M8.5,12.3a1.172,1.172,0,1,1-2.344,0h0a1.172,1.172,0,1,1,2.344,0Zm10.2,0h0a1.172,1.172,0,1,0-2.344,0h0a1.172,1.172,0,0,0,2.344,0Zm5.1,0h0a1.172,1.172,0,1,0-2.344,0h0a1.172,1.172,0,0,0,2.344,0ZM8.5,17.4a1.172,1.172,0,1,0-2.344,0h0a1.172,1.172,0,1,0,2.344,0ZM7.324,21.328A1.172,1.172,0,0,0,6.152,22.5h0a1.172,1.172,0,1,0,2.344,0h0A1.172,1.172,0,0,0,7.324,21.328Zm6.27-9.023a1.172,1.172,0,1,0-2.344,0h0a1.172,1.172,0,0,0,2.344,0Zm0,5.1a1.172,1.172,0,0,0-2.344,0h0a1.172,1.172,0,0,0,2.344,0Zm-1.172,3.926A1.172,1.172,0,0,0,11.25,22.5h0a1.172,1.172,0,0,0,2.344,0h0A1.172,1.172,0,0,0,12.422,21.328ZM30,22.91a7.09,7.09,0,1,1-7.09-7.09A7.1,7.1,0,0,1,30,22.91Zm-2.344,0a4.746,4.746,0,1,0-4.746,4.746A4.751,4.751,0,0,0,27.656,22.91Zm-3.047-1.172h-.527v-1.23a1.172,1.172,0,0,0-2.344,0v2.4a1.172,1.172,0,0,0,1.172,1.172h1.7a1.172,1.172,0,1,0,0-2.344Zm.7-19.395H23.789V1.172a1.172,1.172,0,0,0-2.344,0V2.344H16.113V1.172a1.172,1.172,0,1,0-2.344,0V2.344H8.5V1.172a1.172,1.172,0,1,0-2.344,0V2.344H4.688A4.693,4.693,0,0,0,0,7.031V25.313A4.693,4.693,0,0,0,4.688,30h8.965a1.172,1.172,0,0,0,0-2.344H4.688a2.346,2.346,0,0,1-2.344-2.344V7.031A2.346,2.346,0,0,1,4.688,4.688H6.152V5.859a1.172,1.172,0,0,0,2.344,0V4.688H13.77V5.859a1.172,1.172,0,1,0,2.344,0V4.688h5.332V5.859a1.172,1.172,0,0,0,2.344,0V4.688h1.523a2.346,2.346,0,0,1,2.344,2.344v6.68a1.172,1.172,0,0,0,2.344,0V7.031A4.693,4.693,0,0,0,25.313,2.344Z" fill="#01953e"/>
</svg>
