<svg xmlns="http://www.w3.org/2000/svg" width="25.425" height="25.425" viewBox="0 0 25.425 25.425">
  <g id="Group_166" data-name="Group 166" transform="translate(76 -64)">
    <path id="Path_120" data-name="Path 120" d="M-51.32,181h-.745v4.862a3.231,3.231,0,0,1-3.228,3.228h-5.179a3.231,3.231,0,0,1-3.228-3.228v-5.082l-1.609-1.986a.745.745,0,0,0-.579-.276h-9.368a.745.745,0,0,0-.745.745v18.249a.745.745,0,0,0,.745.745H-51.32a.745.745,0,0,0,.745-.745V181.748A.745.745,0,0,0-51.32,181Zm-20.658,9.642h5.115a.745.745,0,0,1,.745.745.745.745,0,0,1-.745.745h-5.115a.745.745,0,0,1-.745-.745.745.745,0,0,1,.745-.745Zm7.945,4.469h-7.945a.745.745,0,0,1-.745-.745.745.745,0,0,1,.745-.745h7.945a.745.745,0,0,1,.745.745.745.745,0,0,1-.745.745Zm0,0" transform="translate(0 -108.833)" fill="#fff"/>
    <path id="Path_121" data-name="Path 121" d="M203.433,78.77h5.179a1.74,1.74,0,0,0,1.738-1.738V71.326a1.741,1.741,0,0,0-1.076-1.607V66.731A2.734,2.734,0,0,0,206.543,64H205.5a2.734,2.734,0,0,0-2.731,2.731v2.988a1.74,1.74,0,0,0-1.076,1.607v5.706a1.74,1.74,0,0,0,1.738,1.738Zm3.285-4.109v.574a.745.745,0,1,1-1.49,0v-.574a1.241,1.241,0,1,1,1.49,0Zm-2.457-7.93A1.243,1.243,0,0,1,205.5,65.49h1.041a1.243,1.243,0,0,1,1.241,1.241v2.857h-3.524Zm0,0" transform="translate(-263.905)" fill="#fff"/>
  </g>
</svg>
