<svg xmlns="http://www.w3.org/2000/svg" width="23.057" height="23.5" viewBox="0 0 23.057 23.5">
  <path id="Path_230" data-name="Path 230" d="M22.918,21.973l-6.7-6.827A9.364,9.364,0,0,0,18.255,9.3,9.226,9.226,0,0,0,9.128,0,9.226,9.226,0,0,0,0,9.3a9.226,9.226,0,0,0,9.127,9.3,8.975,8.975,0,0,0,5.733-2.074l6.7,6.827a.474.474,0,0,0,.679,0l.679-.692A.5.5,0,0,0,22.918,21.973ZM9.128,16.647A7.284,7.284,0,0,1,1.922,9.3,7.284,7.284,0,0,1,9.128,1.959,7.284,7.284,0,0,1,16.333,9.3,7.284,7.284,0,0,1,9.128,16.647Z" transform="translate(-0.001 -0.001)" fill="#939393"/>
</svg>
