<svg xmlns="http://www.w3.org/2000/svg" width="21.425" height="19.85" viewBox="0 0 21.425 19.85">
  <g id="Group_162" data-name="Group 162" transform="translate(-89.341 -615.56)">
    <path id="Path_113" data-name="Path 113" d="M118.123,615.56h5.329a1.014,1.014,0,0,1,1.011,1.012v2.664H123.6v-2.342a.5.5,0,0,0-.5-.5h-4.621a.5.5,0,0,0-.5.5v2.342h-.867v-2.664A1.014,1.014,0,0,1,118.123,615.56Z" transform="translate(-20.734)" fill="#fff" fill-rule="evenodd"/>
    <path id="Path_114" data-name="Path 114" d="M91.651,630.067h1.16v16.174h-1.16a2.317,2.317,0,0,1-2.31-2.311V632.378a2.317,2.317,0,0,1,2.31-2.311Zm3.266,0H105.19v16.174H94.917V630.067Zm12.378,0h1.16a2.317,2.317,0,0,1,2.311,2.311v11.553a2.317,2.317,0,0,1-2.311,2.311H107.3Z" transform="translate(0 -10.831)" fill="#fff" fill-rule="evenodd"/>
  </g>
</svg>
