<svg xmlns="http://www.w3.org/2000/svg" width="26.425" height="27.582" viewBox="0 0 26.425 27.582">
  <g id="Group_165" data-name="Group 165" transform="translate(66 -64)">
    <path id="Path_118" data-name="Path 118" d="M-46.286,76.588h.149q.386.007.765.049V67.254A3.258,3.258,0,0,0-48.625,64h-14.12A3.258,3.258,0,0,0-66,67.254V85.973a3.258,3.258,0,0,0,3.254,3.255h9.427a8.205,8.205,0,0,1-1.24-4.361,8.285,8.285,0,0,1,8.273-8.278Zm-8.043-7.275h4.823a.808.808,0,0,1,.808.808.808.808,0,0,1-.808.808h-4.823a.808.808,0,0,1-.808-.808.808.808,0,0,1,.808-.808Zm0,3.232h4.823a.808.808,0,0,1,.808.808.808.808,0,0,1-.808.808h-4.823a.808.808,0,0,1-.808-.808.808.808,0,0,1,.808-.808Zm-2.714,11.367h-4.823a.808.808,0,0,1-.808-.808.808.808,0,0,1,.808-.808h4.823a.808.808,0,0,1,.808.808.808.808,0,0,1-.808.808Zm0-3.287h-4.823a.808.808,0,0,1-.808-.808.808.808,0,0,1,.808-.808h4.823a.808.808,0,0,1,.808.808.808.808,0,0,1-.808.808Zm0-3.232h-4.823a.808.808,0,0,1-.808-.808.808.808,0,0,1,.808-.808h4.823a.808.808,0,0,1,.808.808.808.808,0,0,1-.808.808Zm0-3.232h-4.823a.808.808,0,0,1-.808-.808.808.808,0,0,1,.808-.808h4.823a.808.808,0,0,1,.808.808.808.808,0,0,1-.808.808Zm0-3.232h-4.823a.808.808,0,0,1-.808-.808.808.808,0,0,1,.808-.808h4.823a.808.808,0,0,1,.808.808.808.808,0,0,1-.808.808Zm1.906,5.657a.808.808,0,0,1,.808-.808h2.323a.808.808,0,0,1,.808.808.808.808,0,0,1-.808.808h-2.323a.808.808,0,0,1-.808-.808Zm0,0" fill="#fff"/>
    <path id="Path_119" data-name="Path 119" d="M186.883,328.687a6.668,6.668,0,0,0-4.664-2.006H182.1a6.714,6.714,0,1,0,4.785,2.007Zm-1.918,3.616L182.4,335.5a.808.808,0,0,1-1.1.149l-1.911-1.385a.808.808,0,1,1,.948-1.309l1.288.933,2.081-2.595a.808.808,0,0,1,1.26,1.011Zm0,0" transform="translate(-228.383 -248.529)" fill="#fff"/>
  </g>
</svg>
