<svg xmlns="http://www.w3.org/2000/svg" width="14.5" height="14.509" viewBox="0 0 14.5 14.509">
  <g id="Group_176" data-name="Group 176" transform="translate(-0.153)">
    <path id="Path_141" data-name="Path 141" d="M41.957,12.336,36.268,6.647,29.621,0H29.1L29,.27a4.765,4.765,0,0,0-.346,2.1,2.972,2.972,0,0,0,.833,1.9L34.671,9.46l.684-.684,4.8,5.364a1.288,1.288,0,0,0,1.8,0h0A1.277,1.277,0,0,0,41.957,12.336Z" transform="translate(-27.677)" fill="#fff"/>
    <path id="Path_142" data-name="Path 142" d="M.526,295.506a1.276,1.276,0,0,0,1.8,1.8l4.064-4.064-1.8-1.8Z" transform="translate(0 -283.183)" fill="#fff"/>
    <path id="Path_143" data-name="Path 143" d="M276.691,6.993a2.122,2.122,0,0,0,1.375-.619l3.007-3.007-.6-.6-2.305,2.305-.6-.6,2.305-2.305-.6-.6-2.305,2.305-.6-.6L278.668.962l-.6-.6L275.06,3.368a2.122,2.122,0,0,0-.619,1.375,1.224,1.224,0,0,1-.087.384l1.953,1.953A1.224,1.224,0,0,1,276.691,6.993Z" transform="translate(-266.431 -0.351)" fill="#fff"/>
  </g>
</svg>
