<svg xmlns="http://www.w3.org/2000/svg" width="19.5" height="19.5" viewBox="0 0 19.5 19.5">
  <g id="Group_189" data-name="Group 189" transform="translate(76 -64)">
    <path id="Path_181" data-name="Path 181" d="M311.571,154H311v1.143h.571a.571.571,0,0,0,0-1.143Zm0,0" transform="translate(-372.261 -86.572)" fill="#fff"/>
    <path id="Path_182" data-name="Path 182" d="M205.714,489.428a1.714,1.714,0,1,1,1.714-1.714,1.716,1.716,0,0,1-1.714,1.714Zm0,0" transform="translate(-269.336 -405.928)" fill="#fff"/>
    <path id="Path_183" data-name="Path 183" d="M-9.286,489.428A1.716,1.716,0,0,1-11,487.714,1.716,1.716,0,0,1-9.286,486a1.716,1.716,0,0,1,1.714,1.714,1.716,1.716,0,0,1-1.714,1.714Zm0,0" transform="translate(-62.524 -405.928)" fill="#fff"/>
    <path id="Path_184" data-name="Path 184" d="M157.881,297.47a2.478,2.478,0,0,0-2.262-1.47H154v3.428h4.751Zm0,0" transform="translate(-221.24 -223.164)" fill="#fff"/>
    <path id="Path_185" data-name="Path 185" d="M-.8,296H-2.614a2.478,2.478,0,0,0-2.262,1.47l-.87,1.958H-.8Zm0,0" transform="translate(-67.578 -223.164)" fill="#fff"/>
    <path id="Path_186" data-name="Path 186" d="M200.57,64A4.57,4.57,0,0,0,200,73.1v3.24a4.347,4.347,0,0,1,1.143.393V73.1a4.57,4.57,0,0,0-.571-9.1Zm.381,5.713h-.571v.571a.571.571,0,0,1-1.143,0V66.856a.571.571,0,0,1,.571-.571h1.143a1.714,1.714,0,0,1,0,3.428Zm0,0" transform="translate(-261.641)" fill="#fff"/>
    <path id="Path_187" data-name="Path 187" d="M-60.575,417.9a.571.571,0,0,1-.571-.571.571.571,0,0,1,.571-.571h.181A3.224,3.224,0,0,0-62.479,416H-73.905A2.1,2.1,0,0,0-76,418.095V420a.571.571,0,0,0,.571.571h.769c0-.063-.007-.126-.007-.19a2.86,2.86,0,0,1,2.856-2.856,2.86,2.86,0,0,1,2.856,2.856c0,.064,0,.127-.007.19h2.49c0-.063-.007-.126-.007-.19a2.86,2.86,0,0,1,2.856-2.856,2.86,2.86,0,0,1,2.856,2.856c0,.064,0,.127-.007.19h.959a.571.571,0,0,0,.571-.571v-.762a3.225,3.225,0,0,0-.287-1.333Zm0,0" transform="translate(0 -338.594)" fill="#fff"/>
  </g>
</svg>
