<svg xmlns="http://www.w3.org/2000/svg" width="18.6" height="16" viewBox="0 0 18.6 16">
  <g id="Group_190" data-name="Group 190" transform="translate(0.001 -45.5)">
    <circle id="Ellipse_13" data-name="Ellipse 13" cx="1.5" cy="1.5" r="1.5" transform="translate(7.999 58.5)" fill="#fff"/>
    <path id="Path_188" data-name="Path 188" d="M17.873,50.695a.725.725,0,0,1-.532-.231,10.966,10.966,0,0,0-16.084,0,.727.727,0,1,1-1.063-.991,12.42,12.42,0,0,1,18.21,0,.727.727,0,0,1-.531,1.222Z" transform="translate(0)" fill="#fff"/>
    <path id="Path_189" data-name="Path 189" d="M85.567,165.543a.724.724,0,0,1-.516-.215,7.44,7.44,0,0,0-10.812,0,.727.727,0,0,1-1.032-1.023,8.892,8.892,0,0,1,12.874,0,.727.727,0,0,1-.516,1.238Z" transform="translate(-70.346 -111.831)" fill="#fff"/>
    <path id="Path_190" data-name="Path 190" d="M151.8,281.261a.727.727,0,0,1-.511-1.243,5.243,5.243,0,0,1,3.536-1.518h.053a5.243,5.243,0,0,1,3.536,1.518.727.727,0,0,1-1.023,1.032,3.794,3.794,0,0,0-2.514-1.1h-.053a3.794,3.794,0,0,0-2.514,1.1A.724.724,0,0,1,151.8,281.261Z" transform="translate(-145.587 -224.536)" fill="#fff"/>
  </g>
</svg>
